<svg height="150" viewBox="0 0 40 40" xmlns="http://www.w3.org/2000/svg"><path d="m-501.08902-59.664266c0-5.039491 3.53648-8.664388 8.08971-8.664388 2.78499 0 5.48154 1.193564 7.07296 2.121891 1.10514-.928327 2.96181-5.702582 2.96181-6.586704-1.37039-1.326182-5.0395-2.9176-10.12319-2.9176-10.03477 0-16.31205 6.85194-16.31205 15.737359 0 9.239068 4.81846 16.621481 15.16269 16.621481 5.08369 0 9.54851-2.121891 11.44937-4.287988-.7073-1.503007-2.65235-5.083698-3.66911-5.790995-.97252.707297-3.40386 2.608157-6.98455 2.608157-3.75752 0-7.64764-2.519745-7.64764-8.841213z" fill="#043f51" transform="translate(515.9375 79.376182)"/></svg>