<svg height="150" viewBox="0 0 40 40" xmlns="http://www.w3.org/2000/svg"><path d="m-502.02102-71.43811a3.9687449 3.9687449 0 0 0 -2.80654 1.162203l-7.8445 7.844483c-.60619.5673-1.03259 1.322902-1.18853 2.176094a3.9691418 3.9691418 0 0 0 -.003.01705c-.0257.144411-.0439.291842-.0537.441316a3.9691418 3.9691418 0 0 0 -.003.04031c-.004.0745-.007.149231-.007.224793 0 .07556.003.150297.007.224793a3.9691418 3.9691418 0 0 0 .003.04031c.01.149475.028.296906.0537.441317a3.9691418 3.9691418 0 0 0 .003.01705c.15595.853191.58235 1.608794 1.18854 2.176094l7.8445 7.844483a3.9687449 3.9687449 0 0 0 5.61308 0 3.9687449 3.9687449 0 0 0 0-5.613095l-1.16224-1.162202h18.14775c2.19869 0 3.96875-1.770062 3.96875-3.96875 0-2.198687-1.77006-3.96875-3.96875-3.96875h-18.14775l1.16221-1.162203a3.9687449 3.9687449 0 0 0 0-5.613094 3.9687449 3.9687449 0 0 0 -2.80654-1.162203z" fill="#043f51" transform="translate(515.9375 79.376182)"/></svg>