<svg height="150" viewBox="0 0 40 40" xmlns="http://www.w3.org/2000/svg"><path d="m-496.09375-75.406647c-2.19869 0-3.96875 1.770063-3.96875 3.96875 0 2.198688 1.77006 3.96875 3.96875 3.96875 2.19868 0 3.96875-1.770062 3.96875-3.96875 0-2.198687-1.77007-3.96875-3.96875-3.96875zm-13.86479 11.90625c-2.19869 0-3.96875 1.770062-3.96875 3.96875 0 2.198687 1.77006 3.96875 3.96875 3.96875h27.72957c2.19869 0 3.96875-1.770063 3.96875-3.96875 0-2.198688-1.77006-3.96875-3.96875-3.96875zm13.86479 11.90625c-2.19869 0-3.96875 1.770062-3.96875 3.96875 0 2.198687 1.77006 3.96875 3.96875 3.96875 2.19868 0 3.96875-1.770063 3.96875-3.96875 0-2.198688-1.77007-3.96875-3.96875-3.96875z" fill="#043f51" transform="translate(515.9375 79.376182)"/></svg>