<svg height="150" viewBox="0 0 40 40" xmlns="http://www.w3.org/2000/svg"><path d="m-507.67573-52.834429c0 6.542499 4.90684 9.327481 11.84721 9.327481 6.23307 0 11.31675-3.182838 11.31675-9.194862 0-3.934341-2.60813-6.630911-4.95108-7.736062 2.03348-.972534 3.80173-3.315455 3.80173-6.365673 0-5.923612-4.59743-8.752801-10.69785-8.752801-5.79102 0-10.47685 2.740775-10.47685 8.664389 0 3.182836 2.21029 5.569963 4.3322 6.586703-2.43134 1.060946-5.17211 3.669103-5.17211 7.470825zm11.36093-10.521044c-2.56394 0-3.71328-1.326182-3.71328-3.138629 0-1.724037 1.14934-3.227043 3.84591-3.227043 2.51976 0 3.5807 1.503006 3.5807 3.403867 0 1.900859-1.19357 2.961805-3.71333 2.961805zm-3.93433 9.902159c0-1.989272 1.19356-3.757515 4.28801-3.757515 2.96179 0 4.19956 1.768243 4.19956 4.022752 0 2.077685-1.37039 3.624898-4.33219 3.624898-2.87339 0-4.15538-1.547213-4.15538-3.890135z" fill="#043f51" transform="translate(515.9375 79.376182)"/></svg>