<svg height="150" viewBox="0 0 40 40" xmlns="http://www.w3.org/2000/svg"><path d="m-507.07894-47.617313c.61888 1.01674 4.95109 3.978547 10.38843 3.978547 6.63091 0 11.58199-3.580691 11.58199-10.918899 0-6.100438-3.66909-9.504305-8.88543-9.504305-2.07766 0-3.84592.574679-4.15535.79571l.26523-5.39314s11.00732-.265236 11.22833-.309442c.22105-.08842.13259-6.321468.13259-6.321468-1.503-.353648-16.44466.08841-16.88672.221032-.7073 2.342922-1.32619 12.554522-1.32619 15.958389l3.75752 2.210303c.7957-.397854 2.34292-1.326181 4.33218-1.281975 2.47555.132619 3.66911 1.635624 3.66911 3.757515 0 2.829188-1.72404 4.111165-4.11117 4.111165-3.89012 0-6.6751-2.917601-7.02875-2.917601-.35364 0-2.78498 4.509019-2.96181 5.61417z" fill="#043f51" transform="translate(515.9375 79.376182)"/></svg>