<svg height="150" viewBox="0 0 40 40" xmlns="http://www.w3.org/2000/svg"><path d="m-487.90522-43.959788c0-.08841-.13258-5.835201-.0885-5.835201.0441 0 4.11117 0 4.11117-.08841 0 0 .17669-5.260522 0-5.746789-.79571-.08842-3.89016-.132619-3.89016-.132619l.0441-18.610755c-1.59142-.618883-6.14465-.928325-7.86867-.972531-2.34292 2.78498-11.40518 16.754098-12.77558 19.848522-.0885 1.237771.39786 4.685843.66311 5.835202 2.21029.132619 11.44936.04421 12.86398-.04421l-.0441 5.525759c2.1219.574679 4.95109.574679 6.98457.221031zm-6.4983-22.235652-.35365 10.521044-6.49829.0442c.83991-1.812449 5.74677-9.371686 6.6309-10.609456z" fill="#043f51" transform="translate(515.9375 79.376182)"/></svg>