<svg height="150" viewBox="0 0 40 40" xmlns="http://www.w3.org/2000/svg"><path d="m-505.89754-73.30781c-1.01449 0-2.0292.388466-2.80655 1.16582-1.55471 1.554708-1.55471 4.058388 0 5.613096l6.9975 6.997504-6.9975 6.997507c-1.55471 1.554705-1.55471 4.057869 0 5.612577 1.55471 1.554707 4.05839 1.554707 5.61309 0l6.99751-6.997507 6.9975 6.997507c1.55471 1.554707 4.05787 1.554707 5.61258 0 1.55471-1.554708 1.55471-4.057872 0-5.612577l-6.9975-6.997507 6.9975-6.997504c1.55471-1.554708 1.55471-4.058388 0-5.613096-1.55471-1.554705-4.05787-1.554705-5.61258 0l-6.9975 6.997507-6.99751-6.997507c-.77735-.777354-1.79206-1.16582-2.80654-1.16582z" fill="#043f51" transform="translate(515.9375 79.376182)"/></svg>