<svg height="150" viewBox="0 0 40 40" xmlns="http://www.w3.org/2000/svg"><path d="m-493.5519-56.525635c-.70732 3.315456-4.73006 6.940353-8.97384 8.487566.39786 1.326181 4.46481 4.553225 5.21632 4.553225 3.62489-1.105152 12.51032-7.603444 12.51032-18.964404 0-9.283274-5.96781-13.129202-11.22835-13.129202-6.32145 0-11.36096 3.403868-11.36096 10.609457 0 6.984558 4.68583 9.857953 8.70859 9.857953 2.29874 0 3.84595-.707297 4.99529-1.591419zm1.23777-8.31074c0 2.121891-1.23777 4.3764-4.28801 4.3764-2.82919 0-4.06696-2.254509-4.06696-4.685842 0-2.387128 1.45883-4.332195 4.33222-4.332195 2.78498 0 4.02275 2.121891 4.02275 4.641637z" fill="#043f51" transform="translate(515.9375 79.376182)"/></svg>