<svg height="150" viewBox="0 0 40 40" xmlns="http://www.w3.org/2000/svg"><path d="m11.651485.00826823a3.96875 3.96875 0 0 0 -1.9466511.65887451c-6.1635738 4.10904986-9.7048339 11.40623526-9.7048339 19.17764026 0 7.771406 3.5412601 15.068591 9.7048339 19.177641a3.96875 3.96875 0 0 0 5.5040571-1.101225 3.96875 3.96875 0 0 0 -1.101225-5.504056c-3.659896-2.439934-6.170166-7.245798-6.170166-12.57236 0-5.326561 2.51027-10.1324252 6.170166-12.5723587a3.96875 3.96875 0 0 0 1.101225-5.50354 3.96875 3.96875 0 0 0 -2.52336-1.69136965 3.96875 3.96875 0 0 0 -1.034046-.06924642zm16.38453 0a3.96875 3.96875 0 0 0 -1.034046.06924642 3.96875 3.96875 0 0 0 -2.52336 1.69136965 3.96875 3.96875 0 0 0 1.101225 5.50354c3.659896 2.4399335 6.170166 7.2457977 6.170166 12.5723587 0 5.326562-2.51027 10.132426-6.170166 12.57236a3.96875 3.96875 0 0 0 -1.101225 5.504056 3.96875 3.96875 0 0 0 5.504057 1.101225c6.163574-4.10905 9.704834-11.406235 9.704834-19.177641 0-7.771405-3.54126-15.0685904-9.704834-19.17764026a3.96875 3.96875 0 0 0 -1.946651-.65887451z" fill="#043f51"/></svg>