<svg height="150" viewBox="0 0 40 40" xmlns="http://www.w3.org/2000/svg"><path d="m-486.28969-73.307914c-1.01449 0-2.0292.388469-2.80655 1.165823l-19.60759 19.608104c-1.55471 1.554707-1.55471 4.057869 0 5.612577s4.05787 1.554708 5.61258 0l19.60759-19.607588c1.5547-1.554707 1.5547-4.058388 0-5.613093-.77736-.777354-1.79155-1.165823-2.80603-1.165823zm-18.22266 1.38493c-1.01449 0-2.0292.388466-2.80655 1.16582-1.55471 1.554708-1.55471 4.05787 0 5.612577s4.05787 1.554707 5.61258 0c1.5547-1.554707 1.5547-4.057869 0-5.612577-.77736-.777354-1.79155-1.16582-2.80603-1.16582zm16.83773 16.837731c-1.01449 0-2.02868.388985-2.80603 1.166339-1.55471 1.554704-1.55471 4.057869 0 5.612577 1.55471 1.554705 4.05787 1.554705 5.61258 0 1.5547-1.554708 1.5547-4.057873 0-5.612577-.77736-.777354-1.79206-1.166339-2.80655-1.166339z" fill="#043f51" transform="translate(515.9375 79.376182)"/></svg>