<svg height="150" viewBox="0 0 40 40" xmlns="http://www.w3.org/2000/svg"><path d="m-498.65772-62.53766c.66312-3.35966 4.73004-6.940352 9.01805-8.487565-.39785-1.326181-4.50903-4.553225-5.21631-4.553225-3.6249 1.105152-12.55453 7.603444-12.55453 18.964403 0 9.283275 5.96782 13.129203 11.27255 13.129203 6.27726 0 11.36096-3.403868 11.36096-10.653663 0-6.984558-4.73007-9.813747-9.06225-9.813747-1.98927 0-3.53648.707297-4.68583 1.591419zm-1.23776 8.310741c0-2.121891 1.23776-4.3764 4.288-4.3764 2.87338 0 4.11115 2.254509 4.11115 4.641636 0 2.431334-1.45879 4.376401-4.33219 4.376401-2.8292 0-4.06696-2.121891-4.06696-4.641637z" fill="#043f51" transform="translate(515.9375 79.376182)"/></svg>