<svg height="150" viewBox="0 0 40 40" xmlns="http://www.w3.org/2000/svg"><path d="m-490.21321-59.929501c1.32619-.707297 3.89013-3.006013 3.89013-7.028764 0-5.304728-4.24378-8.575977-10.07899-8.575977-5.21632 0-8.17811 2.166097-9.76953 4.022752.61889.795709 3.44807 4.464813 4.11115 4.509019.83993-.884122 2.56396-1.945067 4.59744-1.945067 2.07769 0 3.80174 1.060945 3.80174 3.182836 0 2.342921-2.16611 2.961806-3.6249 2.961806-1.19356 0-3.40388-.08842-4.33222-.08842-.57466.397855-.53044 5.437346 0 6.100438.70733 0 3.18284-.0442 3.89016-.0442 2.96179 0 4.55321 1.281975 4.55321 3.315454 0 1.724037-1.32617 3.359661-4.19957 3.359661-2.78498 0-4.77424-1.193564-5.74679-2.077685-1.14936.486267-3.6691 4.464813-3.5807 5.039491 1.28199 1.414595 4.86267 3.669105 10.2558 3.669105 5.83522 0 10.96312-3.138632 10.96312-9.327481 0-4.597431-3.35965-6.542498-4.73005-6.807734z" fill="#043f51" transform="translate(515.9375 79.376182)"/></svg>