<svg height="150" viewBox="0 0 40 40" xmlns="http://www.w3.org/2000/svg"><path d="m-495.86-50.78415c5.65838-5.790995 9.76955-10.167395 9.76955-15.383712 0-5.879406-4.11117-9.150655-9.94635-9.150655-6.80777 0-9.90219 4.066958-9.9906 4.730049-.0885.663092 3.05024 4.420606 3.89016 4.951079.53046-.618884 1.90084-2.519746 4.68582-2.519746 2.47555 0 3.40388 1.591419 3.40388 3.359662 0 3.934339-6.23306 8.797007-12.02407 15.339505-.17693.928328.6189 5.481552.83992 5.614171.26525.176825 17.68243.08841 18.56655-.04421.39786.04421.6189-6.498292.13258-6.940353l-9.23907.22103z" fill="#043f51" transform="translate(515.9375 79.376182)"/></svg>